<svg width="1600" height="1040" viewBox="0 0 1600 1040" fill="none" xmlns="http://www.w3.org/2000/svg">
  <rect width="1600" height="1040" rx="40" fill="#071622"/>
  <path d="M0 128H1600" stroke="#12324A" stroke-width="2"/>
  <path d="M0 320H1600" stroke="#12324A" stroke-width="2"/>
  <path d="M0 512H1600" stroke="#12324A" stroke-width="2"/>
  <path d="M0 704H1600" stroke="#12324A" stroke-width="2"/>
  <path d="M0 896H1600" stroke="#12324A" stroke-width="2"/>
  <path d="M192 0V1040" stroke="#12324A" stroke-width="2"/>
  <path d="M512 0V1040" stroke="#12324A" stroke-width="2"/>
  <path d="M832 0V1040" stroke="#12324A" stroke-width="2"/>
  <path d="M1152 0V1040" stroke="#12324A" stroke-width="2"/>
  <path d="M1472 0V1040" stroke="#12324A" stroke-width="2"/>
  <rect x="120" y="116" width="1360" height="808" rx="32" fill="#0E2233"/>
  <rect x="172" y="168" width="560" height="288" rx="24" fill="#0A8DFF"/>
  <rect x="780" y="168" width="648" height="132" rx="24" fill="#132C42"/>
  <rect x="780" y="324" width="648" height="132" rx="24" fill="#132C42"/>
  <rect x="172" y="504" width="400" height="124" rx="24" fill="#132C42"/>
  <rect x="600" y="504" width="400" height="124" rx="24" fill="#132C42"/>
  <rect x="1028" y="504" width="400" height="124" rx="24" fill="#132C42"/>
  <rect x="172" y="680" width="1256" height="188" rx="28" fill="#0B1C2B"/>
  <rect x="216" y="724" width="520" height="16" rx="8" fill="#20D7FF" fill-opacity="0.9"/>
  <rect x="216" y="764" width="416" height="16" rx="8" fill="#1E4E6F"/>
  <rect x="216" y="804" width="460" height="16" rx="8" fill="#1E4E6F"/>
  <circle cx="1344" cy="772" r="56" fill="#20D7FF"/>
  <circle cx="1180" cy="772" r="56" fill="#0A8DFF"/>
  <circle cx="1016" cy="772" r="56" fill="#163D5B"/>
  <path d="M268 240H636" stroke="#EAF7FF" stroke-width="18" stroke-linecap="round"/>
  <path d="M268 288H560" stroke="#BCEAFF" stroke-width="18" stroke-linecap="round"/>
  <path d="M268 336H472" stroke="#BCEAFF" stroke-width="18" stroke-linecap="round"/>
  <rect x="820" y="204" width="180" height="18" rx="9" fill="#20D7FF"/>
  <rect x="820" y="252" width="388" height="16" rx="8" fill="#355A77"/>
  <rect x="820" y="360" width="220" height="18" rx="9" fill="#20D7FF"/>
  <rect x="820" y="408" width="452" height="16" rx="8" fill="#355A77"/>
  <rect x="208" y="540" width="132" height="18" rx="9" fill="#20D7FF"/>
  <rect x="208" y="580" width="224" height="16" rx="8" fill="#355A77"/>
  <rect x="636" y="540" width="164" height="18" rx="9" fill="#20D7FF"/>
  <rect x="636" y="580" width="256" height="16" rx="8" fill="#355A77"/>
  <rect x="1064" y="540" width="152" height="18" rx="9" fill="#20D7FF"/>
  <rect x="1064" y="580" width="220" height="16" rx="8" fill="#355A77"/>
</svg>
